<svg xmlns="http://www.w3.org/2000/svg" viewBox="0 0 800 800" role="img">
  <rect width="800" height="800" fill="#17191D"/>
  <rect width="800" height="800" fill="url(#g)"/><defs><linearGradient id="g" x1="0" y1="0" x2="0" y2="1"><stop offset="0" stop-color="#22252B"/><stop offset="1" stop-color="#101215"/></linearGradient></defs>
  <!-- steel rack tube -->
  <rect x="64" y="162" width="672" height="28" rx="14" fill="#0B0C0E"/>
  <rect x="64" y="162" width="672" height="9" rx="4.5" fill="#2E3238"/>
  <!-- towel -->
  <g clip-path="url(#towel)">
    <rect x="232" y="186" width="336" height="131.20000000000002" fill="#2BAEC4"/><rect x="232" y="316.20000000000005" width="336" height="131.20000000000002" fill="#1C8FA3"/><rect x="232" y="446.40000000000003" width="336" height="131.20000000000002" fill="#45BFD3"/><rect x="232" y="576.6" width="336" height="131.20000000000002" fill="#157A8C"/>
  </g>
  <defs><clipPath id="towel"><rect x="232" y="182" width="336" height="520.8000000000001" rx="14"/></clipPath></defs>
  <rect x="232" y="182" width="336" height="520.8000000000001" rx="14" fill="none" stroke="rgba(0,0,0,0.25)" stroke-width="2"/>
  <!-- fold shadow -->
  <rect x="232" y="182" width="336" height="520.8000000000001" rx="14" fill="url(#sh)"/>
  <defs><linearGradient id="sh" x1="0" y1="0" x2="1" y2="0"><stop offset="0" stop-color="rgba(0,0,0,0.18)"/><stop offset="0.2" stop-color="rgba(0,0,0,0)"/><stop offset="0.85" stop-color="rgba(0,0,0,0)"/><stop offset="1" stop-color="rgba(0,0,0,0.2)"/></linearGradient></defs>
  <!-- magnet at contact point -->
  <circle cx="400" cy="194" r="15" fill="#0B0C0E" stroke="#D7261E" stroke-width="3"/>
  <circle cx="400" cy="194" r="5" fill="#D7261E"/>
  
  <g font-family="Helvetica,Arial,sans-serif">
    <rect x="250" y="756" width="300" height="26" rx="13" fill="rgba(0,0,0,0.55)"/>
    <text x="400" y="774" font-size="11" letter-spacing="1.5" fill="#FFD166" text-anchor="middle">PLACEHOLDER — HAND GRABBING TOWEL OFF RACK</text>
  </g>
</svg>